<?xml version="1.0" encoding="UTF-8"?>
<svg xmlns="http://www.w3.org/2000/svg" width="2048" height="2048" viewBox="0 0 2048 2048">
  <title>Jo's Barbershop logo</title>
  <rect id="background" width="2048" height="2048" fill="#000000"/>
  <g id="logo" fill="#FFFFFF">
    <g id="wordmark">
      <path id="J" fill-rule="evenodd" d="M 624.66,1278.73 C 632.35,1266.64 637.25,1255.04 641.82,1241.95 L 668.72,1164.97 L 814.66,721.81 L 845.14,624.79 L 796.56,704.32 C 771.53,745.3 734.86,793.71 700.66,827.25 S 634.04,909.94 612.72,953.71 C 612.17,954.85 611.45,955.31 610.6,955.21 C 609.5,955.07 609.24,953.7 609.48,952.29 C 618.09,903.41 649.63,851.15 681.23,813.07 L 709.3,779.24 C 723.13,762.57 733.88,744.35 744.79,725.41 C 773.33,675.84 800.03,625.55 826.46,574.69 L 905.65,415.62 C 909.4,408.1 914.17,402.73 922.07,399.9 C 930.75,396.8 939.79,398.17 947.2,404.03 C 953.55,409.07 957.16,417.67 956.27,426.8 C 955.6,433.66 953.4,439.87 951.46,446.64 L 927.55,530.03 L 892.87,647.2 C 870.64,722.29 847.83,796.93 822.59,871.19 L 759.26,1057.49 L 703.84,1213.75 C 698.11,1229.9 691.61,1244.32 684.26,1259.58 C 673.09,1282.82 660.13,1304.04 644.68,1324.79 L 562.68,1434.9 L 472.15,1553.68 L 405.5,1640.5 C 402.14,1644.88 397.29,1651.59 394.68,1649.22 C 392.56,1647.28 395.79,1641.8 398.77,1637.06 L 557.86,1383.77 L 624.66,1278.73 Z"/>
      <path id="o" fill-rule="evenodd" d="M 1011.86,866.84 C 1008.71,864.28 1005.15,862.16 1001.49,860.44 C 990.64,855.33 978.08,853.81 966.23,855.49 C 959.57,856.43 952.97,858.25 946.67,860.6 C 945.13,861.18 943.65,861.83 942.14,862.44 C 940.03,863.3 937.86,864.04 935.75,864.88 C 930.56,866.97 925.45,869.28 920.47,871.84 C 915.46,874.42 910.65,877.32 905.88,880.32 C 890.45,890.01 875.65,900.33 862.6,913.14 C 829.23,945.92 807.85,989.69 801.79,1036.02 C 800.96,1042.41 800.38,1048.85 800.34,1055.3 C 800.19,1077.19 805.69,1100.08 820.31,1116.93 C 823.15,1120.2 826.3,1123.19 829.74,1125.83 C 834.07,1129.16 838.85,1131.91 843.9,1134.02 C 863.44,1142.19 885.93,1140.67 905.55,1133.6 C 916.66,1129.6 928.52,1122.9 938.44,1116.46 C 966.9,1098.01 990.85,1072.84 1007.79,1043.43 C 1016.04,1029.1 1022.49,1013.82 1027.5,998.07 C 1032.72,981.69 1036.11,967.03 1037.36,949.81 C 1039.17,924.69 1037.05,895.06 1020.17,874.93 C 1017.68,871.95 1014.87,869.29 1011.86,866.84 Z M 852.57,1079.06 C 852.1,1077.94 851.59,1076.85 851.15,1075.72 C 849.74,1072.11 848.61,1068.4 847.77,1064.62 C 844.89,1051.62 845.24,1034.54 846.58,1021.27 C 849.87,988.59 861.94,956.93 881.46,930.48 C 884.45,926.44 887.65,922.59 890.95,918.79 C 897.45,911.27 903.54,904.76 911.04,898.18 C 925.04,885.88 942.87,874.22 961.67,871.56 C 966.92,870.81 972.2,870.93 977.46,871.46 C 988.3,872.56 997.05,875.15 1004.7,883.31 C 1012.38,891.51 1014.76,900.55 1015.89,911.43 C 1017.05,922.66 1016.43,934.01 1014.37,945.08 C 1010.58,965.47 1002.06,984.79 991.1,1002.32 C 974.8,1028.39 951.88,1052.44 926.51,1069.87 C 922.57,1072.57 918.54,1075.13 914.4,1077.52 C 911.1,1079.41 907.74,1081.19 904.3,1082.82 C 901.57,1084.12 898.77,1085.32 895.94,1086.41 C 893.73,1087.25 891.49,1088.02 889.23,1088.67 C 878.22,1091.9 863.18,1093.64 855.16,1083.41 C 854.13,1082.09 853.21,1080.61 852.57,1079.06 Z"/>
      <path id="apostrophe" fill-rule="evenodd" d="M 1051.64,869.92 C 1051.64,870.73 1050.26,870.92 1049.8,870.64 S 1048.76,869.92 1048.34,868.89 C 1042.79,855.12 1040.42,840.93 1040.36,825.91 C 1040.27,806.52 1042.07,787.98 1045.66,768.94 L 1057.79,718.63 C 1059.65,727.51 1057.88,735.34 1057.39,743.85 L 1051.87,840.44 L 1051.63,869.94 Z"/>
      <path id="s" fill-rule="evenodd" d="M 1046.21,1081.76 C 1042.86,1063.81 1046.11,1046.35 1054.18,1030.6 C 1054.59,1029.81 1056.77,1030.85 1057.15,1031.46 C 1058.42,1033.51 1053.51,1048.49 1054.91,1064.93 C 1056.5,1083.69 1066.72,1099.61 1083.21,1108.75 C 1105.46,1121.09 1132.02,1123.44 1155.41,1112.95 C 1168.54,1107.07 1178.11,1096.14 1183.82,1083.09 C 1195.8,1055.78 1194.75,1028.16 1172.65,1007.14 C 1158.49,993.67 1141.77,984.36 1123.37,977.59 C 1109.26,972.39 1095.41,968.3 1082.17,961.39 C 1074.17,957.21 1067.28,951.19 1065.25,942.27 C 1062.23,928.93 1068.11,916 1078.33,907.2 C 1100.64,887.99 1143.17,873.77 1172.58,865.07 L 1245.85,847.56 C 1246.6,847.38 1247.32,847.63 1247.58,847.87 C 1247.97,848.24 1247.7,849.88 1246.69,850.23 C 1219.96,859.46 1194.46,870.28 1169.11,882.96 L 1134.12,900.46 L 1111.18,914.36 C 1103.95,918.73 1095.91,926.94 1099.65,930.84 C 1103.2,934.52 1108.29,936.05 1113.16,937.14 L 1144.77,944.2 C 1161.94,948.03 1177.59,955.67 1192.39,965.14 C 1204.1,972.64 1214.1,981.7 1221.52,993.49 C 1235.42,1015.58 1238.02,1042.02 1230.11,1066.89 C 1225.11,1082.63 1217.63,1097.14 1206.95,1109.6 C 1185.17,1135.01 1152.9,1146.02 1119.97,1141.41 C 1098.02,1138.34 1077.63,1129.41 1062.66,1113 C 1054.53,1104.08 1048.48,1094.17 1046.17,1081.79 Z"/>
    </g>
    <g id="barbershop">
      <path id="letter-1-B" d="M838.17 1308.5V1240.23H863.79Q871.61 1240.23 876.34 1242.3Q881.06 1244.37 883.74 1248.68Q886.42 1252.99 886.42 1257.69Q886.42 1262.07 884.04 1265.94Q881.67 1269.8 876.87 1272.18Q883.06 1273.99 886.39 1278.37Q889.72 1282.75 889.72 1288.71Q889.72 1293.5 887.7 1297.62Q885.67 1301.75 882.69 1303.98Q879.71 1306.22 875.22 1307.36Q870.72 1308.5 864.2 1308.5ZM847.21 1268.92H861.97Q867.98 1268.92 870.58 1268.12Q874.03 1267.1 875.78 1264.72Q877.52 1262.35 877.52 1258.76Q877.52 1255.36 875.89 1252.78Q874.26 1250.2 871.24 1249.24Q868.21 1248.29 860.85 1248.29H847.21ZM847.21 1300.44H864.2Q868.58 1300.44 870.35 1300.12Q873.47 1299.56 875.57 1298.25Q877.66 1296.95 879.01 1294.46Q880.36 1291.97 880.36 1288.71Q880.36 1284.89 878.41 1282.07Q876.45 1279.25 872.98 1278.11Q869.51 1276.97 862.99 1276.97H847.21Z"/>
      <path id="letter-2-A" d="M899.6 1308.5 925.82 1240.23H935.55L963.49 1308.5H953.2L945.24 1287.82H916.69L909.19 1308.5ZM919.3 1280.46H942.44L935.32 1261.56Q932.06 1252.94 930.47 1247.4Q929.17 1253.97 926.8 1260.44Z"/>
      <path id="letter-3-R" d="M975.79 1308.5V1240.23H1006.06Q1015.18 1240.23 1019.93 1242.07Q1024.68 1243.91 1027.52 1248.57Q1030.37 1253.22 1030.37 1258.86Q1030.37 1266.12 1025.66 1271.1Q1020.96 1276.09 1011.13 1277.44Q1014.72 1279.16 1016.58 1280.84Q1020.54 1284.47 1024.08 1289.92L1035.95 1308.5H1024.59L1015.56 1294.3Q1011.6 1288.15 1009.04 1284.89Q1006.48 1281.63 1004.45 1280.32Q1002.42 1279.02 1000.33 1278.51Q998.79 1278.18 995.3 1278.18H984.82V1308.5ZM984.82 1270.36H1004.24Q1010.43 1270.36 1013.93 1269.08Q1017.42 1267.8 1019.24 1264.98Q1021.05 1262.16 1021.05 1258.86Q1021.05 1254.01 1017.54 1250.89Q1014.02 1247.77 1006.43 1247.77H984.82Z"/>
      <path id="letter-4-B" d="M1049.09 1308.5V1240.23H1074.7Q1082.52 1240.23 1087.25 1242.3Q1091.98 1244.37 1094.66 1248.68Q1097.33 1252.99 1097.33 1257.69Q1097.33 1262.07 1094.96 1265.94Q1092.58 1269.8 1087.79 1272.18Q1093.98 1273.99 1097.31 1278.37Q1100.64 1282.75 1100.64 1288.71Q1100.64 1293.5 1098.61 1297.62Q1096.59 1301.75 1093.61 1303.98Q1090.63 1306.22 1086.13 1307.36Q1081.64 1308.5 1075.12 1308.5ZM1058.12 1268.92H1072.89Q1078.89 1268.92 1081.5 1268.12Q1084.95 1267.1 1086.69 1264.72Q1088.44 1262.35 1088.44 1258.76Q1088.44 1255.36 1086.81 1252.78Q1085.18 1250.2 1082.15 1249.24Q1079.13 1248.29 1071.77 1248.29H1058.12ZM1058.12 1300.44H1075.12Q1079.5 1300.44 1081.27 1300.12Q1084.39 1299.56 1086.48 1298.25Q1088.58 1296.95 1089.93 1294.46Q1091.28 1291.97 1091.28 1288.71Q1091.28 1284.89 1089.32 1282.07Q1087.37 1279.25 1083.9 1278.11Q1080.43 1276.97 1073.91 1276.97H1058.12Z"/>
      <path id="letter-5-E" d="M1118.2 1308.5V1240.23H1167.56V1248.29H1127.23V1269.2H1165V1277.2H1127.23V1300.44H1169.14V1308.5Z"/>
      <path id="letter-6-R" d="M1186.7 1308.5V1240.23H1216.97Q1226.1 1240.23 1230.85 1242.07Q1235.6 1243.91 1238.44 1248.57Q1241.28 1253.22 1241.28 1258.86Q1241.28 1266.12 1236.58 1271.1Q1231.87 1276.09 1222.05 1277.44Q1225.63 1279.16 1227.5 1280.84Q1231.46 1284.47 1234.99 1289.92L1246.87 1308.5H1235.51L1226.47 1294.3Q1222.51 1288.15 1219.95 1284.89Q1217.39 1281.63 1215.37 1280.32Q1213.34 1279.02 1211.25 1278.51Q1209.71 1278.18 1206.22 1278.18H1195.74V1308.5ZM1195.74 1270.36H1215.16Q1221.35 1270.36 1224.84 1269.08Q1228.34 1267.8 1230.15 1264.98Q1231.97 1262.16 1231.97 1258.86Q1231.97 1254.01 1228.45 1250.89Q1224.94 1247.77 1217.35 1247.77H1195.74Z"/>
      <path id="letter-7-S" d="M1257.3 1286.56 1265.83 1285.82Q1266.43 1290.94 1268.64 1294.23Q1270.86 1297.51 1275.51 1299.53Q1280.17 1301.56 1285.99 1301.56Q1291.16 1301.56 1295.12 1300.02Q1299.08 1298.49 1301.01 1295.81Q1302.94 1293.13 1302.94 1289.96Q1302.94 1286.75 1301.08 1284.35Q1299.22 1281.95 1294.93 1280.32Q1292.18 1279.25 1282.78 1277Q1273.37 1274.74 1269.6 1272.73Q1264.71 1270.17 1262.31 1266.38Q1259.91 1262.58 1259.91 1257.88Q1259.91 1252.71 1262.85 1248.22Q1265.78 1243.72 1271.41 1241.39Q1277.05 1239.07 1283.94 1239.07Q1291.53 1239.07 1297.33 1241.51Q1303.13 1243.96 1306.25 1248.71Q1309.37 1253.46 1309.6 1259.46L1300.94 1260.11Q1300.24 1253.64 1296.21 1250.34Q1292.18 1247.03 1284.31 1247.03Q1276.12 1247.03 1272.37 1250.03Q1268.62 1253.04 1268.62 1257.27Q1268.62 1260.95 1271.27 1263.33Q1273.88 1265.7 1284.9 1268.19Q1295.91 1270.69 1300.01 1272.55Q1305.97 1275.3 1308.81 1279.51Q1311.65 1283.72 1311.65 1289.22Q1311.65 1294.67 1308.53 1299.49Q1305.41 1304.31 1299.56 1306.98Q1293.72 1309.66 1286.41 1309.66Q1277.14 1309.66 1270.88 1306.96Q1264.62 1304.26 1261.05 1298.84Q1257.49 1293.41 1257.3 1286.56Z"/>
      <path id="letter-8-H" d="M1329.21 1308.5V1240.23H1338.24V1268.26H1373.73V1240.23H1382.76V1308.5H1373.73V1276.32H1338.24V1308.5Z"/>
      <path id="letter-9-O" d="M1399.99 1275.25Q1399.99 1258.25 1409.12 1248.64Q1418.25 1239.02 1432.69 1239.02Q1442.14 1239.02 1449.73 1243.54Q1457.32 1248.05 1461.3 1256.13Q1465.28 1264.21 1465.28 1274.46Q1465.28 1284.84 1461.09 1293.04Q1456.9 1301.23 1449.22 1305.45Q1441.53 1309.66 1432.64 1309.66Q1423 1309.66 1415.41 1305.01Q1407.82 1300.35 1403.91 1292.29Q1399.99 1284.24 1399.99 1275.25ZM1409.31 1275.39Q1409.31 1287.73 1415.94 1294.83Q1422.58 1301.93 1432.59 1301.93Q1442.79 1301.93 1449.38 1294.76Q1455.97 1287.59 1455.97 1274.41Q1455.97 1266.08 1453.15 1259.86Q1450.33 1253.64 1444.91 1250.22Q1439.48 1246.8 1432.73 1246.8Q1423.14 1246.8 1416.22 1253.39Q1409.31 1259.97 1409.31 1275.39Z"/>
      <path id="letter-10-P" d="M1481.86 1308.5V1240.23H1507.62Q1514.42 1240.23 1518 1240.88Q1523.03 1241.72 1526.43 1244.07Q1529.83 1246.42 1531.9 1250.66Q1533.97 1254.9 1533.97 1259.97Q1533.97 1268.68 1528.43 1274.71Q1522.89 1280.74 1508.41 1280.74H1490.9V1308.5ZM1490.9 1272.69H1508.55Q1517.3 1272.69 1520.98 1269.43Q1524.66 1266.17 1524.66 1260.25Q1524.66 1255.97 1522.49 1252.92Q1520.33 1249.87 1516.79 1248.89Q1514.51 1248.29 1508.36 1248.29H1490.9Z"/>
      <rect id="dash-left" x="718.15" y="1272.16" width="85.29" height="9.03"/>
      <rect id="dash-right" x="1568.71" y="1272.16" width="85.29" height="9.03"/>
    </g>
  </g>
</svg>
