<?xml version="1.0" encoding="UTF-8"?>
<svg xmlns="http://www.w3.org/2000/svg" width="2048" height="2048" viewBox="0 0 2048 2048">
  <title>Jo's Barbershop logo</title>
  <rect id="background" width="2048" height="2048" fill="#000000"/>
  <g id="logo" fill="#FFFFFF">
    <g id="wordmark">
      <path id="J" fill-rule="evenodd" d="M622.14 938.32C626.77 932.07 631.38 925.85 636.36 919.88C641.77 913.40 647.42 907.30 652.64 900.64C694.52 847.23 737.56 794.59 776.18 738.72C791.24 716.93 805.51 694.61 818.81 671.70C822.86 664.74 826.82 657.73 830.70 650.68C832.69 647.08 834.63 642.29 837.98 639.79C838.51 643.39 837.36 646.63 836.32 650.03C834.99 654.39 833.67 658.74 832.34 663.09C827.22 679.95 822.14 696.82 817.08 713.69C799.06 773.82 781.30 834.02 762.98 894.06C737.52 977.49 711.42 1060.89 679.94 1142.28C657.12 1201.27 631.29 1259.05 602.03 1315.14C576.88 1363.37 549.27 1410.22 519.92 1456.00C503.04 1482.33 485.70 1508.33 467.53 1533.79C452.08 1555.45 436.15 1576.75 419.80 1597.74C414.28 1604.82 408.71 1611.87 403.10 1618.90C400.11 1622.65 396.96 1626.33 394.09 1630.19C403.93 1620.57 413.52 1610.67 423.04 1600.73C439.81 1583.20 456.24 1565.33 472.31 1547.14C494.85 1521.62 516.84 1495.53 537.71 1468.62C596.45 1392.87 647.41 1310.90 689.15 1224.61C728.31 1143.66 759.09 1059.10 786.93 973.70C813.12 893.38 836.82 812.30 860.80 731.31C884.15 652.44 907.81 573.65 934.29 495.77C938.09 484.61 941.94 473.47 945.85 462.36C947.86 456.65 951.34 448.50 951.79 442.64C952.60 432.14 945.99 422.13 935.95 418.87C924.85 415.26 913.10 420.47 907.94 430.84C906.32 434.07 905.25 437.56 904.02 440.95C902.53 445.00 900.88 448.99 898.96 452.86C896.72 457.37 894.02 461.58 891.48 465.92C890.19 468.13 889.01 470.41 887.82 472.69C876.66 494.11 865.83 515.70 855.03 537.30C829.41 588.52 803.83 639.81 774.98 689.33C739.09 750.94 698.67 809.75 661.07 870.31C656.95 876.95 652.86 883.61 648.81 890.29C646.45 894.18 644.05 898.05 641.83 902.03C639.22 906.71 636.95 911.59 634.46 916.34C630.56 923.78 626.42 931.09 622.14 938.32Z"/>
      <path id="o" fill-rule="evenodd" d="M976.98 854.76C954.96 851.54 933.78 857.88 914.25 867.76C892.20 878.90 872.20 894.39 856.19 913.23C844.15 927.40 834.46 943.32 825.12 959.33C816.84 973.52 808.95 988.11 804.04 1003.86C800.91 1013.89 799.06 1024.33 799.09 1034.85C799.18 1064.12 813.49 1094.49 839.34 1109.44C844.90 1112.65 850.90 1115.09 857.12 1116.68C883.22 1123.30 910.54 1114.22 932.94 1100.84C954.85 1087.75 974.05 1069.83 988.11 1048.50C997.50 1034.23 1004.46 1018.60 1010.81 1002.79C1016.59 988.40 1021.89 973.75 1025.33 958.60C1032.13 928.74 1032.86 892.39 1008.29 870.15C1004.23 866.46 999.68 863.31 994.82 860.78C989.25 857.88 983.21 855.67 976.98 854.76ZM974.52 868.37C979.06 869.48 983.45 871.13 987.47 873.53C990.58 875.38 993.46 877.61 996.02 880.16C1012.45 896.51 1011.14 922.51 1005.59 943.26C1000.91 960.76 992.57 977.04 983.61 992.69C975.62 1006.65 967.13 1020.42 956.67 1032.69C946.13 1045.06 933.69 1055.65 920.03 1064.43C909.89 1070.95 898.97 1076.78 887.37 1080.24C882.04 1081.83 876.04 1083.25 870.48 1082.05C861.92 1080.19 855.05 1071.88 850.65 1064.78C838.98 1045.99 837.15 1024.98 841.79 1003.71C844.80 989.91 850.01 976.68 855.38 963.66C861.30 949.32 867.69 935.10 876.48 922.26C887.58 906.05 902.35 892.59 919.15 882.46C934.32 873.32 956.59 864.00 974.52 868.37Z"/>
      <path id="apostrophe" fill-rule="evenodd" d="M1049.02 720.59C1047.88 728.67 1046.91 736.78 1045.87 744.88C1043.56 762.83 1041.37 780.76 1039.61 798.77C1038.90 806.08 1038.12 813.40 1037.70 820.73C1036.88 834.90 1037.18 851.11 1040.19 864.99C1041.88 858.27 1042.36 851.20 1043.03 844.32C1043.74 837.00 1044.36 829.68 1044.74 822.34C1045.07 816.05 1045.19 809.75 1045.47 803.45C1046.69 775.84 1048.83 748.24 1049.02 720.59Z"/>
      <path id="s" fill-rule="evenodd" d="M1228.26 845.22C1220.76 848.07 1213.22 851.05 1205.48 853.23C1195.16 856.15 1184.55 858.04 1174.09 860.41C1147.75 866.38 1114.47 874.89 1090.96 888.02C1075.66 896.58 1057.63 911.97 1063.05 931.74C1063.85 934.67 1065.15 937.45 1066.78 940.01C1075.82 954.18 1093.81 962.23 1108.99 967.93C1124.19 973.63 1144.16 978.95 1157.68 987.34C1162.74 990.48 1167.36 994.32 1171.31 998.77C1174.57 1002.44 1177.38 1006.49 1179.68 1010.82C1182.32 1015.76 1184.30 1021.04 1185.63 1026.49C1187.59 1034.54 1188.10 1042.93 1187.20 1051.17C1186.40 1058.47 1184.46 1065.66 1181.40 1072.35C1178.04 1079.67 1173.30 1086.35 1167.38 1091.82C1147.28 1110.42 1114.53 1116.50 1088.57 1108.89C1077.67 1105.70 1068.04 1100.02 1059.45 1092.67C1052.08 1086.37 1046.87 1080.77 1042.68 1071.92C1044.85 1079.04 1046.48 1086.42 1049.65 1093.19C1052.32 1098.91 1056.17 1104.00 1060.60 1108.48C1075.46 1123.55 1096.51 1131.11 1117.28 1132.93C1157.98 1136.50 1201.92 1119.39 1221.26 1081.70C1224.67 1075.05 1227.22 1067.97 1228.84 1060.68C1236.06 1028.25 1224.37 994.87 1199.41 973.18C1187.40 962.75 1173.12 955.86 1158.11 950.88C1149.58 948.05 1140.89 945.76 1132.21 943.43C1123.57 941.11 1114.77 938.87 1106.56 935.23C1100.30 932.46 1091.72 928.06 1093.64 919.82C1094.73 915.17 1098.07 911.22 1101.40 907.96C1108.37 901.11 1116.90 895.85 1125.37 891.07C1140.92 882.29 1157.33 875.11 1173.71 868.07C1184.33 863.52 1194.79 858.59 1205.45 854.16C1212.99 851.02 1220.71 848.34 1228.26 845.22Z"/>
    </g>
    <g id="barbershop">
      <path id="letter-1-B" d="M885.03 1274.26Q885.03 1282.72 878.86 1287.43Q872.69 1292.13 861.7 1292.13H835.94V1228.68H859Q881.34 1228.68 881.34 1244.08Q881.34 1249.71 878.19 1253.54Q875.03 1257.37 869.27 1258.67Q876.83 1259.57 880.93 1263.74Q885.03 1267.9 885.03 1274.26ZM872.69 1245.12Q872.69 1239.98 869.18 1237.78Q865.67 1235.57 859 1235.57H844.54V1255.66H859Q865.89 1255.66 869.29 1253.07Q872.69 1250.48 872.69 1245.12ZM876.34 1273.58Q876.34 1262.37 860.58 1262.37H844.54V1285.24H861.25Q869.13 1285.24 872.74 1282.32Q876.34 1279.39 876.34 1273.58Z"/>
      <path id="letter-2-A" d="M949.57 1292.13 942.32 1273.58H913.4L906.11 1292.13H897.19L923.09 1228.68H932.86L958.35 1292.13ZM927.86 1235.16 927.46 1236.42Q926.33 1240.16 924.12 1246.02L916.02 1266.87H939.75L931.6 1245.93Q930.34 1242.82 929.08 1238.9Z"/>
      <path id="letter-3-R" d="M1018.07 1292.13 1001.59 1265.79H981.81V1292.13H973.21V1228.68H1003.07Q1013.79 1228.68 1019.62 1233.47Q1025.45 1238.27 1025.45 1246.83Q1025.45 1253.9 1021.33 1258.72Q1017.21 1263.54 1009.96 1264.8L1027.98 1292.13ZM1016.81 1246.92Q1016.81 1241.38 1013.05 1238.47Q1009.29 1235.57 1002.22 1235.57H981.81V1258.99H1002.58Q1009.38 1258.99 1013.09 1255.81Q1016.81 1252.64 1016.81 1246.92Z"/>
      <path id="letter-4-B" d="M1096.03 1274.26Q1096.03 1282.72 1089.86 1287.43Q1083.69 1292.13 1072.7 1292.13H1046.94V1228.68H1069.99Q1092.33 1228.68 1092.33 1244.08Q1092.33 1249.71 1089.18 1253.54Q1086.03 1257.37 1080.26 1258.67Q1087.83 1259.57 1091.93 1263.74Q1096.03 1267.9 1096.03 1274.26ZM1083.69 1245.12Q1083.69 1239.98 1080.17 1237.78Q1076.66 1235.57 1069.99 1235.57H1055.54V1255.66H1069.99Q1076.89 1255.66 1080.29 1253.07Q1083.69 1250.48 1083.69 1245.12ZM1087.33 1273.58Q1087.33 1262.37 1071.57 1262.37H1055.54V1285.24H1072.25Q1080.13 1285.24 1083.73 1282.32Q1087.33 1279.39 1087.33 1273.58Z"/>
      <path id="letter-5-E" d="M1115.57 1292.13V1228.68H1163.72V1235.7H1124.17V1256.06H1161.01V1263H1124.17V1285.11H1165.56V1292.13Z"/>
      <path id="letter-6-R" d="M1229.06 1292.13 1212.58 1265.79H1192.81V1292.13H1184.21V1228.68H1214.07Q1224.78 1228.68 1230.62 1233.47Q1236.45 1238.27 1236.45 1246.83Q1236.45 1253.9 1232.33 1258.72Q1228.21 1263.54 1220.96 1264.8L1238.97 1292.13ZM1227.8 1246.92Q1227.8 1241.38 1224.04 1238.47Q1220.28 1235.57 1213.21 1235.57H1192.81V1258.99H1213.57Q1220.37 1258.99 1224.09 1255.81Q1227.8 1252.64 1227.8 1246.92Z"/>
      <path id="letter-7-S" d="M1307.65 1274.62Q1307.65 1283.4 1300.78 1288.22Q1293.91 1293.04 1281.44 1293.04Q1258.25 1293.04 1254.55 1276.91L1262.88 1275.25Q1264.33 1280.97 1269.01 1283.65Q1273.69 1286.32 1281.75 1286.32Q1290.09 1286.32 1294.61 1283.46Q1299.14 1280.61 1299.14 1275.07Q1299.14 1271.96 1297.72 1270.02Q1296.3 1268.09 1293.73 1266.82Q1291.17 1265.56 1287.61 1264.71Q1284.05 1263.85 1279.73 1262.86Q1272.21 1261.19 1268.31 1259.53Q1264.42 1257.86 1262.16 1255.81Q1259.91 1253.76 1258.72 1251.02Q1257.53 1248.27 1257.53 1244.71Q1257.53 1236.56 1263.76 1232.15Q1270 1227.73 1281.62 1227.73Q1292.43 1227.73 1298.15 1231.04Q1303.87 1234.35 1306.16 1242.32L1297.7 1243.81Q1296.3 1238.77 1292.38 1236.49Q1288.47 1234.22 1281.53 1234.22Q1273.92 1234.22 1269.91 1236.74Q1265.9 1239.26 1265.9 1244.26Q1265.9 1247.19 1267.46 1249.1Q1269.01 1251.02 1271.94 1252.35Q1274.86 1253.67 1283.6 1255.61Q1286.53 1256.29 1289.43 1256.98Q1292.34 1257.68 1295 1258.65Q1297.65 1259.62 1299.97 1260.92Q1302.29 1262.23 1304 1264.12Q1305.71 1266.01 1306.68 1268.58Q1307.65 1271.15 1307.65 1274.62Z"/>
      <path id="letter-8-H" d="M1369.49 1292.13V1262.73H1335.17V1292.13H1326.57V1228.68H1335.17V1255.52H1369.49V1228.68H1378.09V1292.13Z"/>
      <path id="letter-9-O" d="M1460.05 1260.11Q1460.05 1270.07 1456.25 1277.54Q1452.44 1285.02 1445.33 1289.03Q1438.21 1293.04 1428.53 1293.04Q1418.76 1293.04 1411.66 1289.07Q1404.57 1285.11 1400.83 1277.61Q1397.09 1270.11 1397.09 1260.11Q1397.09 1244.89 1405.42 1236.31Q1413.76 1227.73 1428.62 1227.73Q1438.3 1227.73 1445.42 1231.58Q1452.53 1235.43 1456.29 1242.77Q1460.05 1250.12 1460.05 1260.11ZM1451.27 1260.11Q1451.27 1248.27 1445.35 1241.51Q1439.43 1234.76 1428.62 1234.76Q1417.72 1234.76 1411.77 1241.42Q1405.83 1248.09 1405.83 1260.11Q1405.83 1272.05 1411.84 1279.05Q1417.85 1286.05 1428.53 1286.05Q1439.52 1286.05 1445.39 1279.28Q1451.27 1272.5 1451.27 1260.11Z"/>
      <path id="letter-10-P" d="M1528.24 1247.77Q1528.24 1256.78 1522.36 1262.1Q1516.48 1267.41 1506.4 1267.41H1487.75V1292.13H1479.15V1228.68H1505.85Q1516.53 1228.68 1522.38 1233.68Q1528.24 1238.68 1528.24 1247.77ZM1519.59 1247.86Q1519.59 1235.57 1504.82 1235.57H1487.75V1260.61H1505.18Q1519.59 1260.61 1519.59 1247.86Z"/>
      <rect id="dash-left" x="710.18" y="1259.33" width="92.23" height="8.60"/>
      <rect id="dash-right" x="1561.77" y="1259.33" width="92.23" height="8.60"/>
    </g>
  </g>
</svg>
