<svg xmlns="http://www.w3.org/2000/svg" viewBox="50.0 260 1023.0 472.0" width="2046.0" height="944.0">
<rect x="50.0" y="260" width="1023.0" height="472.0" fill="#0d0c0c"/>
<g stroke-width="0.8" stroke-linecap="round">
<line x1="70.0" y1="279.0" x2="1053.0" y2="279.0" stroke="#f3f0ea"/>
<line x1="70.0" y1="284.5" x2="1053.0" y2="284.5" stroke="#f3f0ea"/>
<line x1="70.0" y1="289.0" x2="1053.0" y2="289.0" stroke="#f3f0ea"/>
<line x1="70.0" y1="297.5" x2="1053.0" y2="297.5" stroke="#f3f0ea"/>
<line x1="70.0" y1="301.0" x2="1053.0" y2="301.0" stroke="#f3f0ea"/>
<line x1="70.0" y1="314.5" x2="1053.0" y2="314.5" stroke="#f3f0ea"/>
<line x1="70.0" y1="321.0" x2="1053.0" y2="321.0" stroke="#f3f0ea"/>
<line x1="70.0" y1="330.0" x2="1053.0" y2="330.0" stroke="#f3f0ea"/>
<line x1="70.0" y1="335.0" x2="1053.0" y2="335.0" stroke="#f3f0ea"/>
<line x1="70.0" y1="337.5" x2="1053.0" y2="337.5" stroke="#f3f0ea"/>
<line x1="70.0" y1="279.0" x2="70.0" y2="284.5" stroke="#f3f0ea"/>
<line x1="70.0" y1="284.5" x2="70.0" y2="289.0" stroke="#f3f0ea"/>
<line x1="70.0" y1="289.0" x2="70.0" y2="297.5" stroke="#f3f0ea"/>
<line x1="70.0" y1="297.5" x2="70.0" y2="301.0" stroke="#f3f0ea"/>
<line x1="70.0" y1="301.0" x2="70.0" y2="314.5" stroke="#f3f0ea"/>
<line x1="70.0" y1="314.5" x2="70.0" y2="321.0" stroke="#f3f0ea"/>
<line x1="70.0" y1="321.0" x2="70.0" y2="330.0" stroke="#f3f0ea"/>
<line x1="70.0" y1="330.0" x2="70.0" y2="335.0" stroke="#f3f0ea"/>
<line x1="70.0" y1="335.0" x2="70.0" y2="337.5" stroke="#f3f0ea"/>
<line x1="1053.0" y1="279.0" x2="1053.0" y2="284.5" stroke="#f3f0ea"/>
<line x1="1053.0" y1="284.5" x2="1053.0" y2="289.0" stroke="#f3f0ea"/>
<line x1="1053.0" y1="289.0" x2="1053.0" y2="297.5" stroke="#f3f0ea"/>
<line x1="1053.0" y1="297.5" x2="1053.0" y2="301.0" stroke="#f3f0ea"/>
<line x1="1053.0" y1="301.0" x2="1053.0" y2="314.5" stroke="#f3f0ea"/>
<line x1="1053.0" y1="314.5" x2="1053.0" y2="321.0" stroke="#f3f0ea"/>
<line x1="1053.0" y1="321.0" x2="1053.0" y2="330.0" stroke="#f3f0ea"/>
<line x1="1053.0" y1="330.0" x2="1053.0" y2="335.0" stroke="#f3f0ea"/>
<line x1="1053.0" y1="335.0" x2="1053.0" y2="337.5" stroke="#f3f0ea"/>
<line x1="70.0" y1="337.5" x2="70.0" y2="712.0" stroke="#f3f0ea"/>
<line x1="1053.0" y1="337.5" x2="1053.0" y2="712.0" stroke="#f3f0ea"/>
<line x1="138.2" y1="492.0" x2="138.5" y2="486.1" stroke="#f3f0ea"/>
<line x1="138.5" y1="486.1" x2="139.4" y2="480.3" stroke="#f3f0ea"/>
<line x1="139.4" y1="480.3" x2="140.8" y2="474.6" stroke="#f3f0ea"/>
<line x1="140.8" y1="474.6" x2="142.8" y2="469.0" stroke="#f3f0ea"/>
<line x1="142.8" y1="469.0" x2="145.3" y2="463.7" stroke="#f3f0ea"/>
<line x1="145.3" y1="463.7" x2="148.3" y2="458.7" stroke="#f3f0ea"/>
<line x1="148.3" y1="458.7" x2="151.8" y2="453.9" stroke="#f3f0ea"/>
<line x1="151.8" y1="453.9" x2="155.8" y2="449.6" stroke="#f3f0ea"/>
<line x1="155.8" y1="449.6" x2="160.1" y2="445.6" stroke="#f3f0ea"/>
<line x1="160.1" y1="445.6" x2="164.9" y2="442.1" stroke="#f3f0ea"/>
<line x1="164.9" y1="442.1" x2="169.9" y2="439.1" stroke="#f3f0ea"/>
<line x1="169.9" y1="439.1" x2="175.2" y2="436.6" stroke="#f3f0ea"/>
<line x1="175.2" y1="436.6" x2="180.8" y2="434.6" stroke="#f3f0ea"/>
<line x1="180.8" y1="434.6" x2="186.5" y2="433.2" stroke="#f3f0ea"/>
<line x1="186.5" y1="433.2" x2="192.3" y2="432.3" stroke="#f3f0ea"/>
<line x1="192.3" y1="432.3" x2="198.2" y2="432.0" stroke="#f3f0ea"/>
<line x1="198.2" y1="432.0" x2="204.1" y2="432.3" stroke="#f3f0ea"/>
<line x1="204.1" y1="432.3" x2="209.9" y2="433.2" stroke="#f3f0ea"/>
<line x1="209.9" y1="433.2" x2="215.6" y2="434.6" stroke="#f3f0ea"/>
<line x1="215.6" y1="434.6" x2="221.2" y2="436.6" stroke="#f3f0ea"/>
<line x1="221.2" y1="436.6" x2="226.5" y2="439.1" stroke="#f3f0ea"/>
<line x1="226.5" y1="439.1" x2="231.5" y2="442.1" stroke="#f3f0ea"/>
<line x1="231.5" y1="442.1" x2="236.3" y2="445.6" stroke="#f3f0ea"/>
<line x1="236.3" y1="445.6" x2="240.6" y2="449.6" stroke="#f3f0ea"/>
<line x1="240.6" y1="449.6" x2="244.6" y2="453.9" stroke="#f3f0ea"/>
<line x1="244.6" y1="453.9" x2="248.1" y2="458.7" stroke="#f3f0ea"/>
<line x1="248.1" y1="458.7" x2="251.1" y2="463.7" stroke="#f3f0ea"/>
<line x1="251.1" y1="463.7" x2="253.6" y2="469.0" stroke="#f3f0ea"/>
<line x1="253.6" y1="469.0" x2="255.6" y2="474.6" stroke="#f3f0ea"/>
<line x1="255.6" y1="474.6" x2="257.0" y2="480.3" stroke="#f3f0ea"/>
<line x1="257.0" y1="480.3" x2="257.9" y2="486.1" stroke="#f3f0ea"/>
<line x1="257.9" y1="486.1" x2="258.2" y2="492.0" stroke="#f3f0ea"/>
<line x1="138.2" y1="492.0" x2="138.2" y2="712.0" stroke="#f3f0ea"/>
<line x1="258.2" y1="492.0" x2="258.2" y2="712.0" stroke="#f3f0ea"/>
<line x1="138.2" y1="492.0" x2="138.5" y2="486.1" stroke="#a39d94"/>
<line x1="138.5" y1="486.1" x2="139.4" y2="480.3" stroke="#a39d94"/>
<line x1="139.4" y1="480.3" x2="140.8" y2="474.6" stroke="#a39d94"/>
<line x1="140.8" y1="474.6" x2="142.8" y2="469.0" stroke="#a39d94"/>
<line x1="142.8" y1="469.0" x2="145.3" y2="463.7" stroke="#a39d94"/>
<line x1="145.3" y1="463.7" x2="148.3" y2="458.7" stroke="#a39d94"/>
<line x1="148.3" y1="458.7" x2="151.8" y2="453.9" stroke="#a39d94"/>
<line x1="151.8" y1="453.9" x2="155.8" y2="449.6" stroke="#a39d94"/>
<line x1="155.8" y1="449.6" x2="160.1" y2="445.6" stroke="#a39d94"/>
<line x1="160.1" y1="445.6" x2="164.9" y2="442.1" stroke="#a39d94"/>
<line x1="164.9" y1="442.1" x2="169.9" y2="439.1" stroke="#a39d94"/>
<line x1="169.9" y1="439.1" x2="175.2" y2="436.6" stroke="#a39d94"/>
<line x1="175.2" y1="436.6" x2="180.8" y2="434.6" stroke="#a39d94"/>
<line x1="180.8" y1="434.6" x2="186.5" y2="433.2" stroke="#a39d94"/>
<line x1="186.5" y1="433.2" x2="192.3" y2="432.3" stroke="#a39d94"/>
<line x1="192.3" y1="432.3" x2="198.2" y2="432.0" stroke="#a39d94"/>
<line x1="198.2" y1="432.0" x2="204.1" y2="432.3" stroke="#a39d94"/>
<line x1="204.1" y1="432.3" x2="209.9" y2="433.2" stroke="#a39d94"/>
<line x1="209.9" y1="433.2" x2="215.6" y2="434.6" stroke="#a39d94"/>
<line x1="215.6" y1="434.6" x2="221.2" y2="436.6" stroke="#a39d94"/>
<line x1="221.2" y1="436.6" x2="226.5" y2="439.1" stroke="#a39d94"/>
<line x1="226.5" y1="439.1" x2="231.5" y2="442.1" stroke="#a39d94"/>
<line x1="231.5" y1="442.1" x2="236.3" y2="445.6" stroke="#a39d94"/>
<line x1="236.3" y1="445.6" x2="240.6" y2="449.6" stroke="#a39d94"/>
<line x1="240.6" y1="449.6" x2="244.6" y2="453.9" stroke="#a39d94"/>
<line x1="244.6" y1="453.9" x2="248.1" y2="458.7" stroke="#a39d94"/>
<line x1="248.1" y1="458.7" x2="251.1" y2="463.7" stroke="#a39d94"/>
<line x1="251.1" y1="463.7" x2="253.6" y2="469.0" stroke="#a39d94"/>
<line x1="253.6" y1="469.0" x2="255.6" y2="474.6" stroke="#a39d94"/>
<line x1="255.6" y1="474.6" x2="257.0" y2="480.3" stroke="#a39d94"/>
<line x1="257.0" y1="480.3" x2="257.9" y2="486.1" stroke="#a39d94"/>
<line x1="257.9" y1="486.1" x2="258.2" y2="492.0" stroke="#a39d94"/>
<line x1="138.2" y1="492.0" x2="138.2" y2="712.0" stroke="#a39d94"/>
<line x1="258.2" y1="492.0" x2="258.2" y2="712.0" stroke="#a39d94"/>
<line x1="138.2" y1="512.0" x2="258.2" y2="512.0" stroke="#a39d94"/>
<line x1="126.2" y1="492.0" x2="126.5" y2="484.9" stroke="#f3f0ea"/>
<line x1="126.5" y1="484.9" x2="127.6" y2="478.0" stroke="#f3f0ea"/>
<line x1="127.6" y1="478.0" x2="129.3" y2="471.1" stroke="#f3f0ea"/>
<line x1="129.3" y1="471.1" x2="131.7" y2="464.4" stroke="#f3f0ea"/>
<line x1="131.7" y1="464.4" x2="134.7" y2="458.1" stroke="#f3f0ea"/>
<line x1="134.7" y1="458.1" x2="138.3" y2="452.0" stroke="#f3f0ea"/>
<line x1="138.3" y1="452.0" x2="142.5" y2="446.3" stroke="#f3f0ea"/>
<line x1="142.5" y1="446.3" x2="147.3" y2="441.1" stroke="#f3f0ea"/>
<line x1="147.3" y1="441.1" x2="152.5" y2="436.3" stroke="#f3f0ea"/>
<line x1="152.5" y1="436.3" x2="158.2" y2="432.1" stroke="#f3f0ea"/>
<line x1="158.2" y1="432.1" x2="164.3" y2="428.5" stroke="#f3f0ea"/>
<line x1="164.3" y1="428.5" x2="170.6" y2="425.5" stroke="#f3f0ea"/>
<line x1="170.6" y1="425.5" x2="177.3" y2="423.1" stroke="#f3f0ea"/>
<line x1="177.3" y1="423.1" x2="184.2" y2="421.4" stroke="#f3f0ea"/>
<line x1="184.2" y1="421.4" x2="191.1" y2="420.3" stroke="#f3f0ea"/>
<line x1="191.1" y1="420.3" x2="198.2" y2="420.0" stroke="#f3f0ea"/>
<line x1="198.2" y1="420.0" x2="205.3" y2="420.3" stroke="#f3f0ea"/>
<line x1="205.3" y1="420.3" x2="212.2" y2="421.4" stroke="#f3f0ea"/>
<line x1="212.2" y1="421.4" x2="219.1" y2="423.1" stroke="#f3f0ea"/>
<line x1="219.1" y1="423.1" x2="225.8" y2="425.5" stroke="#f3f0ea"/>
<line x1="225.8" y1="425.5" x2="232.1" y2="428.5" stroke="#f3f0ea"/>
<line x1="232.1" y1="428.5" x2="238.2" y2="432.1" stroke="#f3f0ea"/>
<line x1="238.2" y1="432.1" x2="243.9" y2="436.3" stroke="#f3f0ea"/>
<line x1="243.9" y1="436.3" x2="249.1" y2="441.1" stroke="#f3f0ea"/>
<line x1="249.1" y1="441.1" x2="253.9" y2="446.3" stroke="#f3f0ea"/>
<line x1="253.9" y1="446.3" x2="258.1" y2="452.0" stroke="#f3f0ea"/>
<line x1="258.1" y1="452.0" x2="261.7" y2="458.1" stroke="#f3f0ea"/>
<line x1="261.7" y1="458.1" x2="264.7" y2="464.4" stroke="#f3f0ea"/>
<line x1="264.7" y1="464.4" x2="267.1" y2="471.1" stroke="#f3f0ea"/>
<line x1="267.1" y1="471.1" x2="268.8" y2="478.0" stroke="#f3f0ea"/>
<line x1="268.8" y1="478.0" x2="269.9" y2="484.9" stroke="#f3f0ea"/>
<line x1="269.9" y1="484.9" x2="270.2" y2="492.0" stroke="#f3f0ea"/>
<line x1="126.2" y1="492.0" x2="126.2" y2="712.0" stroke="#f3f0ea"/>
<line x1="270.2" y1="492.0" x2="270.2" y2="712.0" stroke="#f3f0ea"/>
<line x1="178.2" y1="386.0" x2="218.2" y2="386.0" stroke="#f3f0ea"/>
<line x1="178.2" y1="386.0" x2="178.2" y2="422.8" stroke="#f3f0ea"/>
<line x1="218.2" y1="386.0" x2="218.2" y2="422.8" stroke="#f3f0ea"/>
<line x1="158.2" y1="432.1" x2="132.2" y2="386.0" stroke="#f3f0ea"/>
<line x1="138.7" y1="451.5" x2="117.7" y2="424.5" stroke="#f3f0ea"/>
<line x1="126.6" y1="484.0" x2="112.2" y2="472.0" stroke="#f3f0ea"/>
<line x1="238.2" y1="432.1" x2="264.2" y2="386.0" stroke="#f3f0ea"/>
<line x1="257.7" y1="451.5" x2="278.7" y2="424.5" stroke="#f3f0ea"/>
<line x1="269.8" y1="484.0" x2="284.2" y2="472.0" stroke="#f3f0ea"/>
<line x1="375.8" y1="492.0" x2="376.1" y2="486.1" stroke="#f3f0ea"/>
<line x1="376.1" y1="486.1" x2="377.0" y2="480.3" stroke="#f3f0ea"/>
<line x1="377.0" y1="480.3" x2="378.4" y2="474.6" stroke="#f3f0ea"/>
<line x1="378.4" y1="474.6" x2="380.4" y2="469.0" stroke="#f3f0ea"/>
<line x1="380.4" y1="469.0" x2="382.9" y2="463.7" stroke="#f3f0ea"/>
<line x1="382.9" y1="463.7" x2="385.9" y2="458.7" stroke="#f3f0ea"/>
<line x1="385.9" y1="458.7" x2="389.4" y2="453.9" stroke="#f3f0ea"/>
<line x1="389.4" y1="453.9" x2="393.4" y2="449.6" stroke="#f3f0ea"/>
<line x1="393.4" y1="449.6" x2="397.7" y2="445.6" stroke="#f3f0ea"/>
<line x1="397.7" y1="445.6" x2="402.5" y2="442.1" stroke="#f3f0ea"/>
<line x1="402.5" y1="442.1" x2="407.5" y2="439.1" stroke="#f3f0ea"/>
<line x1="407.5" y1="439.1" x2="412.8" y2="436.6" stroke="#f3f0ea"/>
<line x1="412.8" y1="436.6" x2="418.4" y2="434.6" stroke="#f3f0ea"/>
<line x1="418.4" y1="434.6" x2="424.1" y2="433.2" stroke="#f3f0ea"/>
<line x1="424.1" y1="433.2" x2="429.9" y2="432.3" stroke="#f3f0ea"/>
<line x1="429.9" y1="432.3" x2="435.8" y2="432.0" stroke="#f3f0ea"/>
<line x1="435.8" y1="432.0" x2="441.7" y2="432.3" stroke="#f3f0ea"/>
<line x1="441.7" y1="432.3" x2="447.5" y2="433.2" stroke="#f3f0ea"/>
<line x1="447.5" y1="433.2" x2="453.2" y2="434.6" stroke="#f3f0ea"/>
<line x1="453.2" y1="434.6" x2="458.8" y2="436.6" stroke="#f3f0ea"/>
<line x1="458.8" y1="436.6" x2="464.1" y2="439.1" stroke="#f3f0ea"/>
<line x1="464.1" y1="439.1" x2="469.1" y2="442.1" stroke="#f3f0ea"/>
<line x1="469.1" y1="442.1" x2="473.9" y2="445.6" stroke="#f3f0ea"/>
<line x1="473.9" y1="445.6" x2="478.2" y2="449.6" stroke="#f3f0ea"/>
<line x1="478.2" y1="449.6" x2="482.2" y2="453.9" stroke="#f3f0ea"/>
<line x1="482.2" y1="453.9" x2="485.7" y2="458.7" stroke="#f3f0ea"/>
<line x1="485.7" y1="458.7" x2="488.7" y2="463.7" stroke="#f3f0ea"/>
<line x1="488.7" y1="463.7" x2="491.2" y2="469.0" stroke="#f3f0ea"/>
<line x1="491.2" y1="469.0" x2="493.2" y2="474.6" stroke="#f3f0ea"/>
<line x1="493.2" y1="474.6" x2="494.6" y2="480.3" stroke="#f3f0ea"/>
<line x1="494.6" y1="480.3" x2="495.5" y2="486.1" stroke="#f3f0ea"/>
<line x1="495.5" y1="486.1" x2="495.8" y2="492.0" stroke="#f3f0ea"/>
<line x1="375.8" y1="492.0" x2="375.8" y2="712.0" stroke="#f3f0ea"/>
<line x1="495.8" y1="492.0" x2="495.8" y2="712.0" stroke="#f3f0ea"/>
<line x1="375.8" y1="492.0" x2="376.1" y2="486.1" stroke="#a39d94"/>
<line x1="376.1" y1="486.1" x2="377.0" y2="480.3" stroke="#a39d94"/>
<line x1="377.0" y1="480.3" x2="378.4" y2="474.6" stroke="#a39d94"/>
<line x1="378.4" y1="474.6" x2="380.4" y2="469.0" stroke="#a39d94"/>
<line x1="380.4" y1="469.0" x2="382.9" y2="463.7" stroke="#a39d94"/>
<line x1="382.9" y1="463.7" x2="385.9" y2="458.7" stroke="#a39d94"/>
<line x1="385.9" y1="458.7" x2="389.4" y2="453.9" stroke="#a39d94"/>
<line x1="389.4" y1="453.9" x2="393.4" y2="449.6" stroke="#a39d94"/>
<line x1="393.4" y1="449.6" x2="397.7" y2="445.6" stroke="#a39d94"/>
<line x1="397.7" y1="445.6" x2="402.5" y2="442.1" stroke="#a39d94"/>
<line x1="402.5" y1="442.1" x2="407.5" y2="439.1" stroke="#a39d94"/>
<line x1="407.5" y1="439.1" x2="412.8" y2="436.6" stroke="#a39d94"/>
<line x1="412.8" y1="436.6" x2="418.4" y2="434.6" stroke="#a39d94"/>
<line x1="418.4" y1="434.6" x2="424.1" y2="433.2" stroke="#a39d94"/>
<line x1="424.1" y1="433.2" x2="429.9" y2="432.3" stroke="#a39d94"/>
<line x1="429.9" y1="432.3" x2="435.8" y2="432.0" stroke="#a39d94"/>
<line x1="435.8" y1="432.0" x2="441.7" y2="432.3" stroke="#a39d94"/>
<line x1="441.7" y1="432.3" x2="447.5" y2="433.2" stroke="#a39d94"/>
<line x1="447.5" y1="433.2" x2="453.2" y2="434.6" stroke="#a39d94"/>
<line x1="453.2" y1="434.6" x2="458.8" y2="436.6" stroke="#a39d94"/>
<line x1="458.8" y1="436.6" x2="464.1" y2="439.1" stroke="#a39d94"/>
<line x1="464.1" y1="439.1" x2="469.1" y2="442.1" stroke="#a39d94"/>
<line x1="469.1" y1="442.1" x2="473.9" y2="445.6" stroke="#a39d94"/>
<line x1="473.9" y1="445.6" x2="478.2" y2="449.6" stroke="#a39d94"/>
<line x1="478.2" y1="449.6" x2="482.2" y2="453.9" stroke="#a39d94"/>
<line x1="482.2" y1="453.9" x2="485.7" y2="458.7" stroke="#a39d94"/>
<line x1="485.7" y1="458.7" x2="488.7" y2="463.7" stroke="#a39d94"/>
<line x1="488.7" y1="463.7" x2="491.2" y2="469.0" stroke="#a39d94"/>
<line x1="491.2" y1="469.0" x2="493.2" y2="474.6" stroke="#a39d94"/>
<line x1="493.2" y1="474.6" x2="494.6" y2="480.3" stroke="#a39d94"/>
<line x1="494.6" y1="480.3" x2="495.5" y2="486.1" stroke="#a39d94"/>
<line x1="495.5" y1="486.1" x2="495.8" y2="492.0" stroke="#a39d94"/>
<line x1="375.8" y1="492.0" x2="375.8" y2="712.0" stroke="#a39d94"/>
<line x1="495.8" y1="492.0" x2="495.8" y2="712.0" stroke="#a39d94"/>
<line x1="375.8" y1="512.0" x2="495.8" y2="512.0" stroke="#a39d94"/>
<line x1="363.8" y1="492.0" x2="364.1" y2="484.9" stroke="#f3f0ea"/>
<line x1="364.1" y1="484.9" x2="365.2" y2="478.0" stroke="#f3f0ea"/>
<line x1="365.2" y1="478.0" x2="366.9" y2="471.1" stroke="#f3f0ea"/>
<line x1="366.9" y1="471.1" x2="369.3" y2="464.4" stroke="#f3f0ea"/>
<line x1="369.3" y1="464.4" x2="372.3" y2="458.1" stroke="#f3f0ea"/>
<line x1="372.3" y1="458.1" x2="375.9" y2="452.0" stroke="#f3f0ea"/>
<line x1="375.9" y1="452.0" x2="380.1" y2="446.3" stroke="#f3f0ea"/>
<line x1="380.1" y1="446.3" x2="384.9" y2="441.1" stroke="#f3f0ea"/>
<line x1="384.9" y1="441.1" x2="390.1" y2="436.3" stroke="#f3f0ea"/>
<line x1="390.1" y1="436.3" x2="395.8" y2="432.1" stroke="#f3f0ea"/>
<line x1="395.8" y1="432.1" x2="401.9" y2="428.5" stroke="#f3f0ea"/>
<line x1="401.9" y1="428.5" x2="408.2" y2="425.5" stroke="#f3f0ea"/>
<line x1="408.2" y1="425.5" x2="414.9" y2="423.1" stroke="#f3f0ea"/>
<line x1="414.9" y1="423.1" x2="421.8" y2="421.4" stroke="#f3f0ea"/>
<line x1="421.8" y1="421.4" x2="428.7" y2="420.3" stroke="#f3f0ea"/>
<line x1="428.7" y1="420.3" x2="435.8" y2="420.0" stroke="#f3f0ea"/>
<line x1="435.8" y1="420.0" x2="442.9" y2="420.3" stroke="#f3f0ea"/>
<line x1="442.9" y1="420.3" x2="449.8" y2="421.4" stroke="#f3f0ea"/>
<line x1="449.8" y1="421.4" x2="456.7" y2="423.1" stroke="#f3f0ea"/>
<line x1="456.7" y1="423.1" x2="463.4" y2="425.5" stroke="#f3f0ea"/>
<line x1="463.4" y1="425.5" x2="469.7" y2="428.5" stroke="#f3f0ea"/>
<line x1="469.7" y1="428.5" x2="475.8" y2="432.1" stroke="#f3f0ea"/>
<line x1="475.8" y1="432.1" x2="481.5" y2="436.3" stroke="#f3f0ea"/>
<line x1="481.5" y1="436.3" x2="486.7" y2="441.1" stroke="#f3f0ea"/>
<line x1="486.7" y1="441.1" x2="491.5" y2="446.3" stroke="#f3f0ea"/>
<line x1="491.5" y1="446.3" x2="495.7" y2="452.0" stroke="#f3f0ea"/>
<line x1="495.7" y1="452.0" x2="499.3" y2="458.1" stroke="#f3f0ea"/>
<line x1="499.3" y1="458.1" x2="502.3" y2="464.4" stroke="#f3f0ea"/>
<line x1="502.3" y1="464.4" x2="504.7" y2="471.1" stroke="#f3f0ea"/>
<line x1="504.7" y1="471.1" x2="506.4" y2="478.0" stroke="#f3f0ea"/>
<line x1="506.4" y1="478.0" x2="507.5" y2="484.9" stroke="#f3f0ea"/>
<line x1="507.5" y1="484.9" x2="507.8" y2="492.0" stroke="#f3f0ea"/>
<line x1="363.8" y1="492.0" x2="363.8" y2="712.0" stroke="#f3f0ea"/>
<line x1="507.8" y1="492.0" x2="507.8" y2="712.0" stroke="#f3f0ea"/>
<line x1="415.8" y1="386.0" x2="455.8" y2="386.0" stroke="#f3f0ea"/>
<line x1="415.8" y1="386.0" x2="415.8" y2="422.8" stroke="#f3f0ea"/>
<line x1="455.8" y1="386.0" x2="455.8" y2="422.8" stroke="#f3f0ea"/>
<line x1="395.8" y1="432.1" x2="369.8" y2="386.0" stroke="#f3f0ea"/>
<line x1="376.3" y1="451.5" x2="355.3" y2="424.5" stroke="#f3f0ea"/>
<line x1="364.2" y1="484.0" x2="349.8" y2="472.0" stroke="#f3f0ea"/>
<line x1="475.8" y1="432.1" x2="501.8" y2="386.0" stroke="#f3f0ea"/>
<line x1="495.3" y1="451.5" x2="516.3" y2="424.5" stroke="#f3f0ea"/>
<line x1="507.4" y1="484.0" x2="521.8" y2="472.0" stroke="#f3f0ea"/>
<line x1="613.4" y1="492.0" x2="613.7" y2="486.1" stroke="#f3f0ea"/>
<line x1="613.7" y1="486.1" x2="614.6" y2="480.3" stroke="#f3f0ea"/>
<line x1="614.6" y1="480.3" x2="616.0" y2="474.6" stroke="#f3f0ea"/>
<line x1="616.0" y1="474.6" x2="618.0" y2="469.0" stroke="#f3f0ea"/>
<line x1="618.0" y1="469.0" x2="620.5" y2="463.7" stroke="#f3f0ea"/>
<line x1="620.5" y1="463.7" x2="623.5" y2="458.7" stroke="#f3f0ea"/>
<line x1="623.5" y1="458.7" x2="627.0" y2="453.9" stroke="#f3f0ea"/>
<line x1="627.0" y1="453.9" x2="631.0" y2="449.6" stroke="#f3f0ea"/>
<line x1="631.0" y1="449.6" x2="635.3" y2="445.6" stroke="#f3f0ea"/>
<line x1="635.3" y1="445.6" x2="640.1" y2="442.1" stroke="#f3f0ea"/>
<line x1="640.1" y1="442.1" x2="645.1" y2="439.1" stroke="#f3f0ea"/>
<line x1="645.1" y1="439.1" x2="650.4" y2="436.6" stroke="#f3f0ea"/>
<line x1="650.4" y1="436.6" x2="656.0" y2="434.6" stroke="#f3f0ea"/>
<line x1="656.0" y1="434.6" x2="661.7" y2="433.2" stroke="#f3f0ea"/>
<line x1="661.7" y1="433.2" x2="667.5" y2="432.3" stroke="#f3f0ea"/>
<line x1="667.5" y1="432.3" x2="673.4" y2="432.0" stroke="#f3f0ea"/>
<line x1="673.4" y1="432.0" x2="679.3" y2="432.3" stroke="#f3f0ea"/>
<line x1="679.3" y1="432.3" x2="685.1" y2="433.2" stroke="#f3f0ea"/>
<line x1="685.1" y1="433.2" x2="690.8" y2="434.6" stroke="#f3f0ea"/>
<line x1="690.8" y1="434.6" x2="696.4" y2="436.6" stroke="#f3f0ea"/>
<line x1="696.4" y1="436.6" x2="701.7" y2="439.1" stroke="#f3f0ea"/>
<line x1="701.7" y1="439.1" x2="706.7" y2="442.1" stroke="#f3f0ea"/>
<line x1="706.7" y1="442.1" x2="711.5" y2="445.6" stroke="#f3f0ea"/>
<line x1="711.5" y1="445.6" x2="715.8" y2="449.6" stroke="#f3f0ea"/>
<line x1="715.8" y1="449.6" x2="719.8" y2="453.9" stroke="#f3f0ea"/>
<line x1="719.8" y1="453.9" x2="723.3" y2="458.7" stroke="#f3f0ea"/>
<line x1="723.3" y1="458.7" x2="726.3" y2="463.7" stroke="#f3f0ea"/>
<line x1="726.3" y1="463.7" x2="728.8" y2="469.0" stroke="#f3f0ea"/>
<line x1="728.8" y1="469.0" x2="730.8" y2="474.6" stroke="#f3f0ea"/>
<line x1="730.8" y1="474.6" x2="732.2" y2="480.3" stroke="#f3f0ea"/>
<line x1="732.2" y1="480.3" x2="733.1" y2="486.1" stroke="#f3f0ea"/>
<line x1="733.1" y1="486.1" x2="733.4" y2="492.0" stroke="#f3f0ea"/>
<line x1="613.4" y1="492.0" x2="613.4" y2="712.0" stroke="#f3f0ea"/>
<line x1="733.4" y1="492.0" x2="733.4" y2="712.0" stroke="#f3f0ea"/>
<line x1="613.4" y1="492.0" x2="613.7" y2="486.1" stroke="#a39d94"/>
<line x1="613.7" y1="486.1" x2="614.6" y2="480.3" stroke="#a39d94"/>
<line x1="614.6" y1="480.3" x2="616.0" y2="474.6" stroke="#a39d94"/>
<line x1="616.0" y1="474.6" x2="618.0" y2="469.0" stroke="#a39d94"/>
<line x1="618.0" y1="469.0" x2="620.5" y2="463.7" stroke="#a39d94"/>
<line x1="620.5" y1="463.7" x2="623.5" y2="458.7" stroke="#a39d94"/>
<line x1="623.5" y1="458.7" x2="627.0" y2="453.9" stroke="#a39d94"/>
<line x1="627.0" y1="453.9" x2="631.0" y2="449.6" stroke="#a39d94"/>
<line x1="631.0" y1="449.6" x2="635.3" y2="445.6" stroke="#a39d94"/>
<line x1="635.3" y1="445.6" x2="640.1" y2="442.1" stroke="#a39d94"/>
<line x1="640.1" y1="442.1" x2="645.1" y2="439.1" stroke="#a39d94"/>
<line x1="645.1" y1="439.1" x2="650.4" y2="436.6" stroke="#a39d94"/>
<line x1="650.4" y1="436.6" x2="656.0" y2="434.6" stroke="#a39d94"/>
<line x1="656.0" y1="434.6" x2="661.7" y2="433.2" stroke="#a39d94"/>
<line x1="661.7" y1="433.2" x2="667.5" y2="432.3" stroke="#a39d94"/>
<line x1="667.5" y1="432.3" x2="673.4" y2="432.0" stroke="#a39d94"/>
<line x1="673.4" y1="432.0" x2="679.3" y2="432.3" stroke="#a39d94"/>
<line x1="679.3" y1="432.3" x2="685.1" y2="433.2" stroke="#a39d94"/>
<line x1="685.1" y1="433.2" x2="690.8" y2="434.6" stroke="#a39d94"/>
<line x1="690.8" y1="434.6" x2="696.4" y2="436.6" stroke="#a39d94"/>
<line x1="696.4" y1="436.6" x2="701.7" y2="439.1" stroke="#a39d94"/>
<line x1="701.7" y1="439.1" x2="706.7" y2="442.1" stroke="#a39d94"/>
<line x1="706.7" y1="442.1" x2="711.5" y2="445.6" stroke="#a39d94"/>
<line x1="711.5" y1="445.6" x2="715.8" y2="449.6" stroke="#a39d94"/>
<line x1="715.8" y1="449.6" x2="719.8" y2="453.9" stroke="#a39d94"/>
<line x1="719.8" y1="453.9" x2="723.3" y2="458.7" stroke="#a39d94"/>
<line x1="723.3" y1="458.7" x2="726.3" y2="463.7" stroke="#a39d94"/>
<line x1="726.3" y1="463.7" x2="728.8" y2="469.0" stroke="#a39d94"/>
<line x1="728.8" y1="469.0" x2="730.8" y2="474.6" stroke="#a39d94"/>
<line x1="730.8" y1="474.6" x2="732.2" y2="480.3" stroke="#a39d94"/>
<line x1="732.2" y1="480.3" x2="733.1" y2="486.1" stroke="#a39d94"/>
<line x1="733.1" y1="486.1" x2="733.4" y2="492.0" stroke="#a39d94"/>
<line x1="613.4" y1="492.0" x2="613.4" y2="712.0" stroke="#a39d94"/>
<line x1="733.4" y1="492.0" x2="733.4" y2="712.0" stroke="#a39d94"/>
<line x1="613.4" y1="512.0" x2="733.4" y2="512.0" stroke="#a39d94"/>
<line x1="601.4" y1="492.0" x2="601.7" y2="484.9" stroke="#f3f0ea"/>
<line x1="601.7" y1="484.9" x2="602.8" y2="478.0" stroke="#f3f0ea"/>
<line x1="602.8" y1="478.0" x2="604.5" y2="471.1" stroke="#f3f0ea"/>
<line x1="604.5" y1="471.1" x2="606.9" y2="464.4" stroke="#f3f0ea"/>
<line x1="606.9" y1="464.4" x2="609.9" y2="458.1" stroke="#f3f0ea"/>
<line x1="609.9" y1="458.1" x2="613.5" y2="452.0" stroke="#f3f0ea"/>
<line x1="613.5" y1="452.0" x2="617.7" y2="446.3" stroke="#f3f0ea"/>
<line x1="617.7" y1="446.3" x2="622.5" y2="441.1" stroke="#f3f0ea"/>
<line x1="622.5" y1="441.1" x2="627.7" y2="436.3" stroke="#f3f0ea"/>
<line x1="627.7" y1="436.3" x2="633.4" y2="432.1" stroke="#f3f0ea"/>
<line x1="633.4" y1="432.1" x2="639.5" y2="428.5" stroke="#f3f0ea"/>
<line x1="639.5" y1="428.5" x2="645.8" y2="425.5" stroke="#f3f0ea"/>
<line x1="645.8" y1="425.5" x2="652.5" y2="423.1" stroke="#f3f0ea"/>
<line x1="652.5" y1="423.1" x2="659.4" y2="421.4" stroke="#f3f0ea"/>
<line x1="659.4" y1="421.4" x2="666.3" y2="420.3" stroke="#f3f0ea"/>
<line x1="666.3" y1="420.3" x2="673.4" y2="420.0" stroke="#f3f0ea"/>
<line x1="673.4" y1="420.0" x2="680.5" y2="420.3" stroke="#f3f0ea"/>
<line x1="680.5" y1="420.3" x2="687.4" y2="421.4" stroke="#f3f0ea"/>
<line x1="687.4" y1="421.4" x2="694.3" y2="423.1" stroke="#f3f0ea"/>
<line x1="694.3" y1="423.1" x2="701.0" y2="425.5" stroke="#f3f0ea"/>
<line x1="701.0" y1="425.5" x2="707.3" y2="428.5" stroke="#f3f0ea"/>
<line x1="707.3" y1="428.5" x2="713.4" y2="432.1" stroke="#f3f0ea"/>
<line x1="713.4" y1="432.1" x2="719.1" y2="436.3" stroke="#f3f0ea"/>
<line x1="719.1" y1="436.3" x2="724.3" y2="441.1" stroke="#f3f0ea"/>
<line x1="724.3" y1="441.1" x2="729.1" y2="446.3" stroke="#f3f0ea"/>
<line x1="729.1" y1="446.3" x2="733.3" y2="452.0" stroke="#f3f0ea"/>
<line x1="733.3" y1="452.0" x2="736.9" y2="458.1" stroke="#f3f0ea"/>
<line x1="736.9" y1="458.1" x2="739.9" y2="464.4" stroke="#f3f0ea"/>
<line x1="739.9" y1="464.4" x2="742.3" y2="471.1" stroke="#f3f0ea"/>
<line x1="742.3" y1="471.1" x2="744.0" y2="478.0" stroke="#f3f0ea"/>
<line x1="744.0" y1="478.0" x2="745.1" y2="484.9" stroke="#f3f0ea"/>
<line x1="745.1" y1="484.9" x2="745.4" y2="492.0" stroke="#f3f0ea"/>
<line x1="601.4" y1="492.0" x2="601.4" y2="712.0" stroke="#f3f0ea"/>
<line x1="745.4" y1="492.0" x2="745.4" y2="712.0" stroke="#f3f0ea"/>
<line x1="653.4" y1="386.0" x2="693.4" y2="386.0" stroke="#f3f0ea"/>
<line x1="653.4" y1="386.0" x2="653.4" y2="422.8" stroke="#f3f0ea"/>
<line x1="693.4" y1="386.0" x2="693.4" y2="422.8" stroke="#f3f0ea"/>
<line x1="633.4" y1="432.1" x2="607.4" y2="386.0" stroke="#f3f0ea"/>
<line x1="613.9" y1="451.5" x2="592.9" y2="424.5" stroke="#f3f0ea"/>
<line x1="601.8" y1="484.0" x2="587.4" y2="472.0" stroke="#f3f0ea"/>
<line x1="713.4" y1="432.1" x2="739.4" y2="386.0" stroke="#f3f0ea"/>
<line x1="732.9" y1="451.5" x2="753.9" y2="424.5" stroke="#f3f0ea"/>
<line x1="745.0" y1="484.0" x2="759.4" y2="472.0" stroke="#f3f0ea"/>
<line x1="851.0" y1="492.0" x2="851.3" y2="486.1" stroke="#f3f0ea"/>
<line x1="851.3" y1="486.1" x2="852.2" y2="480.3" stroke="#f3f0ea"/>
<line x1="852.2" y1="480.3" x2="853.6" y2="474.6" stroke="#f3f0ea"/>
<line x1="853.6" y1="474.6" x2="855.6" y2="469.0" stroke="#f3f0ea"/>
<line x1="855.6" y1="469.0" x2="858.1" y2="463.7" stroke="#f3f0ea"/>
<line x1="858.1" y1="463.7" x2="861.1" y2="458.7" stroke="#f3f0ea"/>
<line x1="861.1" y1="458.7" x2="864.6" y2="453.9" stroke="#f3f0ea"/>
<line x1="864.6" y1="453.9" x2="868.6" y2="449.6" stroke="#f3f0ea"/>
<line x1="868.6" y1="449.6" x2="872.9" y2="445.6" stroke="#f3f0ea"/>
<line x1="872.9" y1="445.6" x2="877.7" y2="442.1" stroke="#f3f0ea"/>
<line x1="877.7" y1="442.1" x2="882.7" y2="439.1" stroke="#f3f0ea"/>
<line x1="882.7" y1="439.1" x2="888.0" y2="436.6" stroke="#f3f0ea"/>
<line x1="888.0" y1="436.6" x2="893.6" y2="434.6" stroke="#f3f0ea"/>
<line x1="893.6" y1="434.6" x2="899.3" y2="433.2" stroke="#f3f0ea"/>
<line x1="899.3" y1="433.2" x2="905.1" y2="432.3" stroke="#f3f0ea"/>
<line x1="905.1" y1="432.3" x2="911.0" y2="432.0" stroke="#f3f0ea"/>
<line x1="911.0" y1="432.0" x2="916.9" y2="432.3" stroke="#f3f0ea"/>
<line x1="916.9" y1="432.3" x2="922.7" y2="433.2" stroke="#f3f0ea"/>
<line x1="922.7" y1="433.2" x2="928.4" y2="434.6" stroke="#f3f0ea"/>
<line x1="928.4" y1="434.6" x2="934.0" y2="436.6" stroke="#f3f0ea"/>
<line x1="934.0" y1="436.6" x2="939.3" y2="439.1" stroke="#f3f0ea"/>
<line x1="939.3" y1="439.1" x2="944.3" y2="442.1" stroke="#f3f0ea"/>
<line x1="944.3" y1="442.1" x2="949.1" y2="445.6" stroke="#f3f0ea"/>
<line x1="949.1" y1="445.6" x2="953.4" y2="449.6" stroke="#f3f0ea"/>
<line x1="953.4" y1="449.6" x2="957.4" y2="453.9" stroke="#f3f0ea"/>
<line x1="957.4" y1="453.9" x2="960.9" y2="458.7" stroke="#f3f0ea"/>
<line x1="960.9" y1="458.7" x2="963.9" y2="463.7" stroke="#f3f0ea"/>
<line x1="963.9" y1="463.7" x2="966.4" y2="469.0" stroke="#f3f0ea"/>
<line x1="966.4" y1="469.0" x2="968.4" y2="474.6" stroke="#f3f0ea"/>
<line x1="968.4" y1="474.6" x2="969.8" y2="480.3" stroke="#f3f0ea"/>
<line x1="969.8" y1="480.3" x2="970.7" y2="486.1" stroke="#f3f0ea"/>
<line x1="970.7" y1="486.1" x2="971.0" y2="492.0" stroke="#f3f0ea"/>
<line x1="851.0" y1="492.0" x2="851.0" y2="712.0" stroke="#f3f0ea"/>
<line x1="971.0" y1="492.0" x2="971.0" y2="712.0" stroke="#f3f0ea"/>
<line x1="851.0" y1="492.0" x2="851.3" y2="486.1" stroke="#a39d94"/>
<line x1="851.3" y1="486.1" x2="852.2" y2="480.3" stroke="#a39d94"/>
<line x1="852.2" y1="480.3" x2="853.6" y2="474.6" stroke="#a39d94"/>
<line x1="853.6" y1="474.6" x2="855.6" y2="469.0" stroke="#a39d94"/>
<line x1="855.6" y1="469.0" x2="858.1" y2="463.7" stroke="#a39d94"/>
<line x1="858.1" y1="463.7" x2="861.1" y2="458.7" stroke="#a39d94"/>
<line x1="861.1" y1="458.7" x2="864.6" y2="453.9" stroke="#a39d94"/>
<line x1="864.6" y1="453.9" x2="868.6" y2="449.6" stroke="#a39d94"/>
<line x1="868.6" y1="449.6" x2="872.9" y2="445.6" stroke="#a39d94"/>
<line x1="872.9" y1="445.6" x2="877.7" y2="442.1" stroke="#a39d94"/>
<line x1="877.7" y1="442.1" x2="882.7" y2="439.1" stroke="#a39d94"/>
<line x1="882.7" y1="439.1" x2="888.0" y2="436.6" stroke="#a39d94"/>
<line x1="888.0" y1="436.6" x2="893.6" y2="434.6" stroke="#a39d94"/>
<line x1="893.6" y1="434.6" x2="899.3" y2="433.2" stroke="#a39d94"/>
<line x1="899.3" y1="433.2" x2="905.1" y2="432.3" stroke="#a39d94"/>
<line x1="905.1" y1="432.3" x2="911.0" y2="432.0" stroke="#a39d94"/>
<line x1="911.0" y1="432.0" x2="916.9" y2="432.3" stroke="#a39d94"/>
<line x1="916.9" y1="432.3" x2="922.7" y2="433.2" stroke="#a39d94"/>
<line x1="922.7" y1="433.2" x2="928.4" y2="434.6" stroke="#a39d94"/>
<line x1="928.4" y1="434.6" x2="934.0" y2="436.6" stroke="#a39d94"/>
<line x1="934.0" y1="436.6" x2="939.3" y2="439.1" stroke="#a39d94"/>
<line x1="939.3" y1="439.1" x2="944.3" y2="442.1" stroke="#a39d94"/>
<line x1="944.3" y1="442.1" x2="949.1" y2="445.6" stroke="#a39d94"/>
<line x1="949.1" y1="445.6" x2="953.4" y2="449.6" stroke="#a39d94"/>
<line x1="953.4" y1="449.6" x2="957.4" y2="453.9" stroke="#a39d94"/>
<line x1="957.4" y1="453.9" x2="960.9" y2="458.7" stroke="#a39d94"/>
<line x1="960.9" y1="458.7" x2="963.9" y2="463.7" stroke="#a39d94"/>
<line x1="963.9" y1="463.7" x2="966.4" y2="469.0" stroke="#a39d94"/>
<line x1="966.4" y1="469.0" x2="968.4" y2="474.6" stroke="#a39d94"/>
<line x1="968.4" y1="474.6" x2="969.8" y2="480.3" stroke="#a39d94"/>
<line x1="969.8" y1="480.3" x2="970.7" y2="486.1" stroke="#a39d94"/>
<line x1="970.7" y1="486.1" x2="971.0" y2="492.0" stroke="#a39d94"/>
<line x1="851.0" y1="492.0" x2="851.0" y2="712.0" stroke="#a39d94"/>
<line x1="971.0" y1="492.0" x2="971.0" y2="712.0" stroke="#a39d94"/>
<line x1="851.0" y1="512.0" x2="971.0" y2="512.0" stroke="#a39d94"/>
<line x1="839.0" y1="492.0" x2="839.3" y2="484.9" stroke="#f3f0ea"/>
<line x1="839.3" y1="484.9" x2="840.4" y2="478.0" stroke="#f3f0ea"/>
<line x1="840.4" y1="478.0" x2="842.1" y2="471.1" stroke="#f3f0ea"/>
<line x1="842.1" y1="471.1" x2="844.5" y2="464.4" stroke="#f3f0ea"/>
<line x1="844.5" y1="464.4" x2="847.5" y2="458.1" stroke="#f3f0ea"/>
<line x1="847.5" y1="458.1" x2="851.1" y2="452.0" stroke="#f3f0ea"/>
<line x1="851.1" y1="452.0" x2="855.3" y2="446.3" stroke="#f3f0ea"/>
<line x1="855.3" y1="446.3" x2="860.1" y2="441.1" stroke="#f3f0ea"/>
<line x1="860.1" y1="441.1" x2="865.3" y2="436.3" stroke="#f3f0ea"/>
<line x1="865.3" y1="436.3" x2="871.0" y2="432.1" stroke="#f3f0ea"/>
<line x1="871.0" y1="432.1" x2="877.1" y2="428.5" stroke="#f3f0ea"/>
<line x1="877.1" y1="428.5" x2="883.4" y2="425.5" stroke="#f3f0ea"/>
<line x1="883.4" y1="425.5" x2="890.1" y2="423.1" stroke="#f3f0ea"/>
<line x1="890.1" y1="423.1" x2="897.0" y2="421.4" stroke="#f3f0ea"/>
<line x1="897.0" y1="421.4" x2="903.9" y2="420.3" stroke="#f3f0ea"/>
<line x1="903.9" y1="420.3" x2="911.0" y2="420.0" stroke="#f3f0ea"/>
<line x1="911.0" y1="420.0" x2="918.1" y2="420.3" stroke="#f3f0ea"/>
<line x1="918.1" y1="420.3" x2="925.0" y2="421.4" stroke="#f3f0ea"/>
<line x1="925.0" y1="421.4" x2="931.9" y2="423.1" stroke="#f3f0ea"/>
<line x1="931.9" y1="423.1" x2="938.6" y2="425.5" stroke="#f3f0ea"/>
<line x1="938.6" y1="425.5" x2="944.9" y2="428.5" stroke="#f3f0ea"/>
<line x1="944.9" y1="428.5" x2="951.0" y2="432.1" stroke="#f3f0ea"/>
<line x1="951.0" y1="432.1" x2="956.7" y2="436.3" stroke="#f3f0ea"/>
<line x1="956.7" y1="436.3" x2="961.9" y2="441.1" stroke="#f3f0ea"/>
<line x1="961.9" y1="441.1" x2="966.7" y2="446.3" stroke="#f3f0ea"/>
<line x1="966.7" y1="446.3" x2="970.9" y2="452.0" stroke="#f3f0ea"/>
<line x1="970.9" y1="452.0" x2="974.5" y2="458.1" stroke="#f3f0ea"/>
<line x1="974.5" y1="458.1" x2="977.5" y2="464.4" stroke="#f3f0ea"/>
<line x1="977.5" y1="464.4" x2="979.9" y2="471.1" stroke="#f3f0ea"/>
<line x1="979.9" y1="471.1" x2="981.6" y2="478.0" stroke="#f3f0ea"/>
<line x1="981.6" y1="478.0" x2="982.7" y2="484.9" stroke="#f3f0ea"/>
<line x1="982.7" y1="484.9" x2="983.0" y2="492.0" stroke="#f3f0ea"/>
<line x1="839.0" y1="492.0" x2="839.0" y2="712.0" stroke="#f3f0ea"/>
<line x1="983.0" y1="492.0" x2="983.0" y2="712.0" stroke="#f3f0ea"/>
<line x1="891.0" y1="386.0" x2="931.0" y2="386.0" stroke="#f3f0ea"/>
<line x1="891.0" y1="386.0" x2="891.0" y2="422.8" stroke="#f3f0ea"/>
<line x1="931.0" y1="386.0" x2="931.0" y2="422.8" stroke="#f3f0ea"/>
<line x1="871.0" y1="432.1" x2="845.0" y2="386.0" stroke="#f3f0ea"/>
<line x1="851.5" y1="451.5" x2="830.5" y2="424.5" stroke="#f3f0ea"/>
<line x1="839.4" y1="484.0" x2="825.0" y2="472.0" stroke="#f3f0ea"/>
<line x1="951.0" y1="432.1" x2="977.0" y2="386.0" stroke="#f3f0ea"/>
<line x1="970.5" y1="451.5" x2="991.5" y2="424.5" stroke="#f3f0ea"/>
<line x1="982.6" y1="484.0" x2="997.0" y2="472.0" stroke="#f3f0ea"/>
<line x1="70.0" y1="424.5" x2="117.7" y2="424.5" stroke="#f3f0ea"/>
<line x1="70.0" y1="472.0" x2="112.2" y2="472.0" stroke="#f3f0ea"/>
<line x1="70.0" y1="519.5" x2="126.2" y2="519.5" stroke="#f3f0ea"/>
<line x1="70.0" y1="567.0" x2="126.2" y2="567.0" stroke="#f3f0ea"/>
<line x1="70.0" y1="614.5" x2="126.2" y2="614.5" stroke="#f3f0ea"/>
<line x1="70.0" y1="662.0" x2="126.2" y2="662.0" stroke="#f3f0ea"/>
<line x1="278.7" y1="424.5" x2="355.3" y2="424.5" stroke="#f3f0ea"/>
<line x1="284.2" y1="472.0" x2="349.8" y2="472.0" stroke="#f3f0ea"/>
<line x1="270.2" y1="519.5" x2="363.8" y2="519.5" stroke="#f3f0ea"/>
<line x1="270.2" y1="567.0" x2="363.8" y2="567.0" stroke="#f3f0ea"/>
<line x1="270.2" y1="614.5" x2="363.8" y2="614.5" stroke="#f3f0ea"/>
<line x1="270.2" y1="662.0" x2="363.8" y2="662.0" stroke="#f3f0ea"/>
<line x1="516.3" y1="424.5" x2="592.9" y2="424.5" stroke="#f3f0ea"/>
<line x1="521.8" y1="472.0" x2="587.4" y2="472.0" stroke="#f3f0ea"/>
<line x1="507.8" y1="519.5" x2="601.4" y2="519.5" stroke="#f3f0ea"/>
<line x1="507.8" y1="567.0" x2="601.4" y2="567.0" stroke="#f3f0ea"/>
<line x1="507.8" y1="614.5" x2="601.4" y2="614.5" stroke="#f3f0ea"/>
<line x1="507.8" y1="662.0" x2="601.4" y2="662.0" stroke="#f3f0ea"/>
<line x1="753.9" y1="424.5" x2="830.5" y2="424.5" stroke="#f3f0ea"/>
<line x1="759.4" y1="472.0" x2="825.0" y2="472.0" stroke="#f3f0ea"/>
<line x1="745.4" y1="519.5" x2="839.0" y2="519.5" stroke="#f3f0ea"/>
<line x1="745.4" y1="567.0" x2="839.0" y2="567.0" stroke="#f3f0ea"/>
<line x1="745.4" y1="614.5" x2="839.0" y2="614.5" stroke="#f3f0ea"/>
<line x1="745.4" y1="662.0" x2="839.0" y2="662.0" stroke="#f3f0ea"/>
<line x1="991.5" y1="424.5" x2="1053.0" y2="424.5" stroke="#f3f0ea"/>
<line x1="997.0" y1="472.0" x2="1053.0" y2="472.0" stroke="#f3f0ea"/>
<line x1="983.0" y1="519.5" x2="1053.0" y2="519.5" stroke="#f3f0ea"/>
<line x1="983.0" y1="567.0" x2="1053.0" y2="567.0" stroke="#f3f0ea"/>
<line x1="983.0" y1="614.5" x2="1053.0" y2="614.5" stroke="#f3f0ea"/>
<line x1="983.0" y1="662.0" x2="1053.0" y2="662.0" stroke="#f3f0ea"/>
<line x1="317.0" y1="567.0" x2="317.0" y2="614.5" stroke="#f3f0ea"/>
<line x1="317.0" y1="662.0" x2="317.0" y2="712.0" stroke="#f3f0ea"/>
<line x1="554.6" y1="567.0" x2="554.6" y2="614.5" stroke="#f3f0ea"/>
<line x1="554.6" y1="662.0" x2="554.6" y2="712.0" stroke="#f3f0ea"/>
<line x1="792.2" y1="567.0" x2="792.2" y2="614.5" stroke="#f3f0ea"/>
<line x1="792.2" y1="662.0" x2="792.2" y2="712.0" stroke="#f3f0ea"/>
<line x1="1022.0" y1="386.0" x2="1022.0" y2="424.5" stroke="#f3f0ea"/>
<line x1="1022.0" y1="472.0" x2="1022.0" y2="519.5" stroke="#f3f0ea"/>
<line x1="1022.0" y1="567.0" x2="1022.0" y2="614.5" stroke="#f3f0ea"/>
<line x1="1022.0" y1="662.0" x2="1022.0" y2="712.0" stroke="#f3f0ea"/>
<line x1="70.0" y1="712.0" x2="1053.0" y2="712.0" stroke="#f3f0ea"/>
</g>
<circle cx="760.0" cy="425.0" r="37.5" fill="none" stroke="#c9a66b" stroke-width="0.8"/>
</svg>
